<?xml version="1.0" standalone="no"?>
<!DOCTYPE svg PUBLIC "-//W3C//DTD SVG 20010904//EN"
 "http://www.w3.org/TR/2001/REC-SVG-20010904/DTD/svg10.dtd">
<svg version="1.0" xmlns="http://www.w3.org/2000/svg"
 width="1024.000000pt" height="960.000000pt" viewBox="0 0 1024.000000 960.000000"
 preserveAspectRatio="xMidYMid meet">

<g transform="translate(0.000000,960.000000) scale(0.100000,-0.100000)"
fill="#000000" stroke="none">
<path d="M5961 8958 c-1 -14 -6 -15 -30 -8 -21 6 -33 4 -40 -4 -6 -7 -10 -15
-8 -17 1 -2 -3 1 -9 8 -5 6 -16 8 -23 4 -7 -4 -23 -6 -37 -3 -13 2 -30 0 -37
-6 -6 -5 -45 -13 -85 -17 -39 -4 -75 -11 -78 -16 -3 -5 -18 -9 -34 -9 -15 0
-79 -14 -141 -30 -153 -41 -150 -40 -185 -44 -17 -2 -60 -17 -95 -34 -74 -35
-101 -46 -111 -44 -5 1 -8 -3 -8 -8 0 -5 -9 -10 -21 -10 -11 0 -45 -14 -75
-30 -29 -17 -54 -28 -54 -24 0 4 -8 0 -17 -8 -10 -8 -39 -22 -65 -32 -25 -9
-52 -24 -58 -32 -7 -7 -18 -14 -24 -14 -7 0 -28 -12 -47 -26 -19 -14 -43 -30
-54 -35 -24 -11 -44 -23 -105 -64 -25 -17 -72 -46 -105 -65 -33 -18 -62 -36
-65 -39 -3 -4 -25 -19 -50 -35 -25 -16 -58 -42 -75 -58 -16 -15 -36 -28 -42
-28 -7 0 -13 -4 -13 -8 0 -4 -14 -16 -32 -26 -64 -38 -419 -376 -483 -460 -17
-22 -38 -46 -48 -55 -9 -8 -17 -21 -17 -28 0 -7 -4 -13 -9 -13 -11 0 -171
-213 -171 -229 0 -6 -4 -11 -8 -11 -10 0 -62 -77 -62 -91 0 -5 -7 -17 -16 -26
-20 -23 -117 -173 -126 -196 -4 -10 -12 -16 -17 -12 -5 3 -12 1 -16 -5 -3 -5
-2 -10 4 -10 14 0 -28 -44 -56 -59 -14 -7 -24 -8 -28 -1 -3 5 1 10 9 10 9 0
16 4 16 9 0 4 -11 6 -25 3 -15 -2 -25 0 -25 7 0 7 5 9 10 6 6 -3 10 -1 10 4 0
6 -5 11 -11 11 -6 0 -9 10 -8 23 2 12 0 27 -4 34 -10 15 12 138 30 176 15 31
4 37 -15 7 -23 -37 -120 -235 -147 -300 -119 -283 -183 -621 -192 -1005 -8
-317 10 -529 73 -875 54 -295 185 -715 315 -1008 248 -563 652 -1164 1173
-1747 185 -207 481 -516 618 -646 329 -311 636 -583 792 -704 29 -22 78 -62
110 -89 51 -45 61 -49 103 -47 25 0 51 5 58 9 33 18 472 536 729 857 262 329
639 855 826 1155 414 663 653 1155 746 1538 69 282 -1 549 -185 708 -37 32
-145 104 -156 104 -3 0 -25 9 -48 19 -36 16 -54 18 -127 11 -88 -8 -175 -28
-270 -60 -30 -10 -68 -20 -85 -22 -32 -3 -32 -4 -39 87 -2 22 -8 39 -14 38 -6
-2 -9 3 -6 11 8 20 -40 53 -86 61 -22 4 -40 9 -40 11 0 9 81 322 130 504 79
293 158 600 170 665 19 104 18 102 42 103 40 0 199 70 307 135 135 81 284 225
354 343 95 161 176 386 198 552 18 137 6 289 -30 395 -17 48 -39 105 -50 125
-81 163 -231 379 -298 428 -21 16 -44 35 -51 42 -7 6 -20 12 -28 12 -8 0 -14
4 -14 8 0 5 -11 14 -25 20 -20 9 -23 9 -19 -3 4 -10 0 -13 -14 -10 -29 5 -34
-29 -10 -61 20 -25 20 -26 2 -42 -27 -24 -82 -26 -107 -5 -14 13 -18 13 -12 3
8 -13 7 -13 -8 -1 -14 11 -17 11 -17 0 -1 -10 -4 -9 -11 3 -7 13 -15 15 -32 9
-14 -5 -30 -5 -40 0 -12 7 -17 6 -17 -2 0 -8 -4 -9 -13 -1 -7 6 -28 13 -46 14
-18 1 -35 6 -37 10 -3 4 -14 8 -25 8 -10 0 -19 4 -19 8 0 9 -56 34 -82 37 -9
1 -24 10 -33 19 -9 9 -21 17 -26 17 -5 1 -13 2 -17 3 -4 0 -28 11 -52 23 -47
23 -75 34 -100 39 -8 2 -23 7 -35 13 -17 8 -91 34 -105 36 -3 0 -30 8 -60 18
-120 37 -181 50 -325 73 -187 29 -205 29 -204 7 0 -11 3 -13 6 -5 7 17 23 15
23 -2 0 -8 4 -18 10 -21 5 -3 7 0 5 8 -4 9 3 13 25 13 16 0 30 -3 30 -8 0 -4
-5 -8 -12 -8 -21 0 2 -14 30 -18 68 -8 327 -74 422 -107 146 -50 310 -132 426
-212 188 -130 424 -392 514 -571 18 -38 20 -48 9 -80 -36 -109 -240 -222 -401
-222 -68 0 -95 18 -262 178 -205 196 -339 280 -569 357 -186 62 -425 87 -702
74 -210 -11 -328 -33 -515 -98 -711 -245 -1242 -697 -1613 -1372 -13 -25 -29
-54 -35 -65 -22 -39 -92 -192 -92 -201 0 -4 -8 -24 -19 -43 -49 -93 -116 -346
-155 -590 -33 -201 -43 -577 -21 -755 2 -16 7 -52 10 -80 14 -113 93 -398 140
-510 26 -62 149 -304 184 -364 87 -146 258 -360 382 -477 193 -182 433 -322
664 -389 268 -78 621 -79 895 -4 303 83 619 264 851 487 166 159 273 306 424
582 147 267 247 359 406 368 177 11 278 -59 282 -192 4 -116 -9 -154 -145
-436 -69 -142 -190 -331 -293 -460 -71 -88 -325 -343 -405 -408 -88 -70 -182
-142 -225 -172 -20 -14 -58 -42 -85 -62 -26 -20 -88 -58 -136 -83 -49 -26 -93
-51 -99 -55 -19 -15 -240 -102 -330 -130 -102 -31 -235 -61 -378 -85 -93 -15
-406 -22 -482 -10 -16 3 -75 11 -130 19 -186 28 -408 105 -623 216 -266 138
-470 300 -666 530 -183 214 -304 397 -431 655 -163 331 -256 643 -297 1000
-17 142 -16 590 0 715 43 322 109 594 204 848 260 696 690 1264 1258 1661 346
243 620 370 1015 471 224 57 379 81 564 89 146 5 160 7 123 17 -23 6 -39 8
-37 3 3 -4 -22 -7 -55 -6 -33 1 -60 5 -60 9 0 4 5 8 10 8 6 0 10 3 10 8 0 4
-27 9 -61 10 -41 2 -59 0 -54 -7 3 -6 0 -11 -9 -11 -8 0 -17 6 -19 13 -4 7 -6
6 -6 -5z m69 -12 c0 -3 -4 -8 -10 -11 -5 -3 -10 -1 -10 4 0 6 5 11 10 11 6 0
10 -2 10 -4z m91 -1456 c288 -33 577 -163 732 -331 96 -103 139 -188 141 -276
0 -35 4 -63 8 -63 3 0 5 -8 3 -17 -2 -10 -4 -18 -5 -18 -2 0 -4 -19 -15 -124
-4 -40 -14 -92 -22 -115 -8 -22 -16 -50 -18 -61 -8 -56 -41 -109 -104 -166
-83 -76 -126 -99 -189 -99 -73 0 -108 20 -197 111 -143 146 -287 241 -415 274
-99 26 -305 7 -375 -33 -27 -16 -78 -36 -88 -34 -4 1 -10 -5 -13 -13 -4 -8
-12 -15 -20 -15 -7 0 -17 -6 -21 -13 -4 -6 -19 -18 -33 -25 -14 -7 -54 -41
-90 -74 -36 -34 -58 -57 -50 -53 13 8 13 6 1 -8 -7 -9 -17 -15 -21 -12 -5 3
-12 -5 -16 -17 -3 -12 -11 -26 -15 -32 -30 -36 -80 -106 -96 -136 -11 -19 -33
-60 -50 -90 -17 -30 -32 -59 -33 -65 -1 -5 -9 -26 -17 -45 -15 -36 -42 -108
-42 -113 0 -1 -2 -9 -4 -17 -19 -67 -29 -128 -34 -210 -5 -88 -3 -100 23 -165
21 -53 42 -84 87 -129 78 -77 121 -96 218 -96 144 0 302 68 460 198 144 119
170 137 228 167 71 36 149 43 226 21 85 -25 141 -87 212 -235 52 -106 57 -122
57 -187 1 -67 -2 -75 -67 -207 -60 -120 -78 -147 -145 -215 -87 -88 -172 -155
-269 -214 -83 -50 -233 -129 -233 -122 0 3 -7 -2 -16 -10 -8 -9 -20 -13 -25
-10 -6 3 -20 -2 -31 -13 -12 -10 -18 -12 -14 -5 9 15 -8 16 -34 2 -10 -6 -30
-11 -44 -12 -15 -1 -26 -6 -26 -10 0 -4 -8 -7 -17 -6 -10 0 -29 -3 -43 -6 -14
-3 -47 -8 -75 -12 -27 -3 -52 -7 -55 -9 -32 -20 -279 -25 -384 -9 -190 30
-380 136 -537 301 -115 121 -194 269 -240 453 -60 243 -51 568 25 867 106 415
295 765 568 1048 217 225 405 344 705 446 181 61 358 80 544 59z"/>
<path d="M6133 8963 c9 -2 23 -2 30 0 6 3 -1 5 -18 5 -16 0 -22 -2 -12 -5z"/>
<path d="M6230 8960 c0 -5 7 -7 15 -4 8 4 15 8 15 10 0 2 -7 4 -15 4 -8 0 -15
-4 -15 -10z"/>
<path d="M6383 8963 c9 -2 23 -2 30 0 6 3 -1 5 -18 5 -16 0 -22 -2 -12 -5z"/>
<path d="M6430 8959 c0 -5 5 -7 10 -4 6 3 10 8 10 11 0 2 -4 4 -10 4 -5 0 -10
-5 -10 -11z"/>
<path d="M6350 8928 c0 -11 71 -10 88 0 7 5 -8 8 -38 8 -27 0 -50 -4 -50 -8z"/>
<path d="M6298 8923 c7 -3 16 -2 19 1 4 3 -2 6 -13 5 -11 0 -14 -3 -6 -6z"/>
</g>
</svg>
